/* XPM */
static const char * RMADataConv_xpm[] = {
"32 32 12 1",
" 	c None",
".	c #FFFFFF",
"+	c #FDFDFD",
"@	c #FEFEFF",
"#	c #FDFDFF",
"$	c #F00000",
"%	c #F30000",
"&	c #FDFEFF",
"*	c #FEFEFE",
"=	c #000000",
"-	c #B6DEFF",
";	c #B6DEFD",
"................................",
"................................",
"................................",
"................................",
"+@@....@................@...@#..",
"+$$@......+$...$+......@%@..@&..",
"+$$$@....@$$$.$$$@.....$%%@..*..",
"+$$$$#...@$$$+$$$@....#$%%...*..",
".$$$$$@...$$$#$$$@...@$%$%+.....",
".$$.$$$@.@$$$#$$$@...@$%$%%.....",
".$$..$$@.@$@$#$#$....@$%$%%.....",
".$$..$$...$&$#$#$....@$%.%%.....",
".$$.$$$*.@$#$#$#$#...$%...%%....",
".$$$$$..+$$&$#$&$$&..$%...%%....",
".$$$$....$$#$#$&$$+..$%...%%....",
".$$$.....$$#$#$#$$...$$$$$%%....",
".$$$$$..+$$#$#$#$$+..$%$%$$%....",
".$$$$$$+#$$#$#$#$$...$%$.%$%....",
".$$.$$$@#$$#$$$#$$#.#%%...$%....",
".$$..$$##$$#$$$#$$&#%%%...$%%...",
".$$..$$#$$@#$$$##$$#%%+....$%...",
".$$.*$$#$$...$...$$@%%.....$%...",
".$$.+$$#$$...$...$$&%%@....$%...",
"....+@&###...#...#&@@@@@====....",
"........................=--==...",
"..=======================---==..",
"..=;;;;;;;;;;;;;;;;;;;;;;;;--==.",
"..=;;;;;;;;;;;;;;;;;;;;;;;;---==",
"..=;;;;;;;;;;;;;;;;;;;;;;;;--==.",
"..=======================---==..",
"........................=--==...",
"........................====...."};
