/* XPM */
const char * RMAExpress_64_xpm[] = {
"64 64 687 2",
"  	c None",
". 	c #7373AC",
"+ 	c #8F8EFF",
"@ 	c #8D8CFF",
"# 	c #8F8DFF",
"$ 	c #94949C",
"% 	c #7372D6",
"& 	c #8B8AFF",
"* 	c #8B89FE",
"= 	c #8A89FE",
"- 	c #8C8BFF",
"; 	c #8B8BB8",
"> 	c #7776BB",
", 	c #8C8AFF",
"' 	c #7D7CEC",
") 	c #7C7C79",
"! 	c #8887FF",
"~ 	c #7E7E99",
"{ 	c #7675D6",
"] 	c #6C6CC7",
"^ 	c #81819B",
"/ 	c #8E8DFF",
"( 	c #8684FD",
"_ 	c #8D8BFF",
": 	c #737EE9",
"< 	c #6F7EE9",
"[ 	c #747FEB",
"} 	c #7D7CBF",
"| 	c #8585B4",
"1 	c #6F7FED",
"2 	c #6E7EE9",
"3 	c #7D81EF",
"4 	c #676DD3",
"5 	c #AAC4B9",
"6 	c #BF1013",
"7 	c #E3090C",
"8 	c #E4080B",
"9 	c #E5060A",
"0 	c #E0090D",
"a 	c #D11215",
"b 	c #BA2326",
"c 	c #7D4042",
"d 	c #8696B8",
"e 	c #7E7DBA",
"f 	c #7675E0",
"g 	c #8491FF",
"h 	c #B20000",
"i 	c #E90000",
"j 	c #E70000",
"k 	c #EA0000",
"l 	c #AC0000",
"m 	c #8691FF",
"n 	c #7675BC",
"o 	c #8281AA",
"p 	c #8C8BA5",
"q 	c #7C7276",
"r 	c #EE0000",
"s 	c #E60000",
"t 	c #7E305A",
"u 	c #8C8FFF",
"v 	c #7B7AEA",
"w 	c #7776B7",
"x 	c #8086B5",
"y 	c #8A272E",
"z 	c #EB0002",
"A 	c #E5070A",
"B 	c #E5080B",
"C 	c #AC3133",
"D 	c #EE0509",
"E 	c #FF070B",
"F 	c #FF060A",
"G 	c #FF0307",
"H 	c #BF1616",
"I 	c #C7DCD5",
"J 	c #6E6EA3",
"K 	c #6A7AE2",
"L 	c #F00000",
"M 	c #FD030B",
"N 	c #FC030B",
"O 	c #FE030C",
"P 	c #C90000",
"Q 	c #8290FF",
"R 	c #7070CC",
"S 	c #B54C4E",
"T 	c #FF0509",
"U 	c #FF080C",
"V 	c #FE050A",
"W 	c #FC030C",
"X 	c #FF0005",
"Y 	c #774B8B",
"Z 	c #8B8DFF",
"` 	c #7776E2",
" .	c #7F7FA6",
"..	c #D90A0D",
"+.	c #BE292C",
"@.	c #7E6665",
"#.	c #FF0206",
"$.	c #FE080B",
"%.	c #FE080C",
"&.	c #C90D0F",
"*.	c #7474A2",
"=.	c #6269C1",
"-.	c #FF0000",
";.	c #FB040C",
">.	c #FB040B",
",.	c #DA0000",
"'.	c #7784F5",
").	c #8786FB",
"!.	c #CD0104",
"~.	c #FF070C",
"{.	c #FF080B",
"].	c #FA0309",
"^.	c #6362B6",
"/.	c #8C8CFF",
"(.	c #6D6CAD",
"_.	c #935A5A",
":.	c #CC1215",
"<.	c #925859",
"[.	c #FF0408",
"}.	c #A54A4B",
"|.	c #7574BF",
"1.	c #8D8EFF",
"2.	c #735095",
"3.	c #FF0004",
"4.	c #FA030B",
"5.	c #FC040C",
"6.	c #FD040C",
"7.	c #6D75D9",
"8.	c #7877A9",
"9.	c #734F50",
"0.	c #FF0309",
"a.	c #FA040C",
"b.	c #FA0000",
"c.	c #6375D8",
"d.	c #8584FD",
"e.	c #7B7B9A",
"f.	c #BD2E30",
"g.	c #FE070C",
"h.	c #FB080B",
"i.	c #DE0407",
"j.	c #A33A3B",
"k.	c #D40D10",
"l.	c #BC4546",
"m.	c #BD4143",
"n.	c #BC4244",
"o.	c #B82C2F",
"p.	c #E20306",
"q.	c #FF050A",
"r.	c #D90609",
"s.	c #949493",
"t.	c #7F82F7",
"u.	c #823D72",
"v.	c #FF0006",
"w.	c #E6030B",
"x.	c #C60309",
"y.	c #616AC3",
"z.	c #7C7BEA",
"A.	c #A0A098",
"B.	c #AD282A",
"C.	c #FF0409",
"D.	c #A70309",
"E.	c #FF040C",
"F.	c #CC0000",
"G.	c #7F8EFF",
"H.	c #8180F8",
"I.	c #868699",
"J.	c #8B9595",
"K.	c #F40002",
"L.	c #A90306",
"M.	c #F10105",
"N.	c #B7393A",
"O.	c #B03E40",
"P.	c #BE2E31",
"Q.	c #734D4E",
"R.	c #7F85AD",
"S.	c #962851",
"T.	c #FF0208",
"U.	c #D10309",
"V.	c #AD0309",
"W.	c #FE040C",
"X.	c #FF0001",
"Y.	c #6461B3",
"Z.	c #7676AE",
"`.	c #E00408",
" +	c #FE0409",
".+	c #D6020A",
"++	c #A5040B",
"@+	c #FE030B",
"#+	c #B30207",
"$+	c #848EFF",
"%+	c #878799",
"&+	c #AC4D4F",
"*+	c #6E2E2F",
"=+	c #BD2A2D",
"-+	c #9F3F40",
";+	c #EC0004",
">+	c #9E101B",
",+	c #FF030B",
"'+	c #BF0A16",
")+	c #A70F1F",
"!+	c #725095",
"~+	c #8B8CFF",
"{+	c #8483F9",
"]+	c #86868B",
"^+	c #874647",
"/+	c #FF0207",
"(+	c #FF020A",
"_+	c #861222",
":+	c #DE030A",
"<+	c #FF0209",
"[+	c #9D1A39",
"}+	c #737BA0",
"|+	c #CC090C",
"1+	c #C1070A",
"2+	c #AA8182",
"3+	c #FF0308",
"4+	c #9E6263",
"5+	c #CD1114",
"6+	c #BF2023",
"7+	c #A32527",
"8+	c #C01518",
"9+	c #B10F20",
"0+	c #A71A33",
"a+	c #FE030A",
"b+	c #7D4580",
"c+	c #7877B9",
"d+	c #B22426",
"e+	c #FD0209",
"f+	c #FF0108",
"g+	c #532A4E",
"h+	c #FD0005",
"i+	c #903134",
"j+	c #926E6E",
"k+	c #B55B5C",
"l+	c #A44042",
"m+	c #E20407",
"n+	c #BC3335",
"o+	c #A31E21",
"p+	c #E2070A",
"q+	c #FB0209",
"r+	c #A51B36",
"s+	c #A02343",
"t+	c #FF0107",
"u+	c #833C6F",
"v+	c #8B8EFF",
"w+	c #61707E",
"x+	c #EE0001",
"y+	c #FD030C",
"z+	c #E70001",
"A+	c #524580",
"B+	c #A56060",
"C+	c #B83537",
"D+	c #FE0003",
"E+	c #898C8B",
"F+	c #FE070B",
"G+	c #B73F41",
"H+	c #8A8382",
"I+	c #FA0004",
"J+	c #ED0609",
"K+	c #BD2729",
"L+	c #A82325",
"M+	c #F80509",
"N+	c #FD0609",
"O+	c #952D55",
"P+	c #93325D",
"Q+	c #912B53",
"R+	c #8B90FF",
"S+	c #8C8EFF",
"T+	c #7B3C75",
"U+	c #A1172E",
"V+	c #88437D",
"W+	c #7D6666",
"X+	c #EF0001",
"Y+	c #FF060B",
"Z+	c #BE1B1E",
"`+	c #EF0509",
" @	c #BD3537",
".@	c #83595A",
"+@	c #C50B0E",
"@@	c #DB060A",
"#@	c #792729",
"$@	c #744747",
"%@	c #883C71",
"&@	c #8A3A6C",
"*@	c #9C1F3C",
"=@	c #8C91FF",
"-@	c #8791FF",
";@	c #AF0914",
">@	c #755095",
",@	c #9B2344",
"'@	c #FD0003",
")@	c #849B9B",
"!@	c #A54B4D",
"~@	c #A55D5E",
"{@	c #CF0307",
"]@	c #C51C1F",
"^@	c #A34C4D",
"/@	c #BB2326",
"(@	c #A05B5D",
"_@	c #F70408",
":@	c #984446",
"<@	c #FF0202",
"[@	c #74539D",
"}@	c #82427B",
"|@	c #FE0209",
"1@	c #A3172C",
"2@	c #8B92FF",
"3@	c #8B8BFF",
"4@	c #686DC9",
"5@	c #F80000",
"6@	c #6B87FA",
"7@	c #AC0F1F",
"8@	c #FF0608",
"9@	c #D50105",
"0@	c #C41114",
"a@	c #E80002",
"b@	c #BD0508",
"c@	c #D00306",
"d@	c #B54647",
"e@	c #B44A4B",
"f@	c #A45254",
"g@	c #F80002",
"h@	c #B31F21",
"i@	c #A4292A",
"j@	c #FF0304",
"k@	c #56517F",
"l@	c #7755A0",
"m@	c #FF0003",
"n@	c #AF0710",
"o@	c #8A94FF",
"p@	c #843361",
"q@	c #9C172E",
"r@	c #758AFF",
"s@	c #BF0B0D",
"t@	c #654C4B",
"u@	c #BA3B3E",
"v@	c #BD2C2E",
"w@	c #E70205",
"x@	c #BD3638",
"y@	c #E10609",
"z@	c #CB1114",
"A@	c #CC1013",
"B@	c #D40C0F",
"C@	c #F00206",
"D@	c #685756",
"E@	c #BB3739",
"F@	c #F30000",
"G@	c #A9BFB9",
"H@	c #54437F",
"I@	c #BA0000",
"J@	c #8996FF",
"K@	c #818EFF",
"L@	c #BD0208",
"M@	c #6D559F",
"N@	c #5E6D92",
"O@	c #E70002",
"P@	c #BD383A",
"Q@	c #AD2527",
"R@	c #966869",
"S@	c #BC4446",
"T@	c #FF0105",
"U@	c #777676",
"V@	c #C5171A",
"W@	c #9C5051",
"X@	c #D1070A",
"Y@	c #D9F4E9",
"Z@	c #544B79",
"`@	c #CA0000",
" #	c #6863B8",
".#	c #D30000",
"+#	c #7A8BFF",
"@#	c #6164BC",
"##	c #B84E4F",
"$#	c #E90408",
"%#	c #D40A0D",
"&#	c #B3494A",
"*#	c #926A6B",
"=#	c #D60306",
"-#	c #F80003",
";#	c #994B4C",
">#	c #D7090D",
",#	c #B90A08",
"'#	c #737EBD",
")#	c #7079E2",
"!#	c #E50000",
"~#	c #7080ED",
"{#	c #8D92FF",
"]#	c #8D284C",
"^#	c #932342",
"/#	c #8D94FF",
"(#	c #6F549C",
"_#	c #A34C4E",
":#	c #9D4C4D",
"<#	c #AD3C3E",
"[#	c #A45052",
"}#	c #A45252",
"|#	c #979F9E",
"1#	c #E80509",
"2#	c #AB3638",
"3#	c #828484",
"4#	c #ED0308",
"5#	c #FF0709",
"6#	c #97172B",
"7#	c #8E94FF",
"8#	c #6F81EC",
"9#	c #FD0000",
"0#	c #6273D4",
"a#	c #7E8CFF",
"b#	c #C80000",
"c#	c #675AA7",
"d#	c #8C90FF",
"e#	c #813E74",
"f#	c #FD060A",
"g#	c #916667",
"h#	c #C21C1F",
"i#	c #736A6A",
"j#	c #746D6D",
"k#	c #815050",
"l#	c #AE3F41",
"m#	c #7E6C6D",
"n#	c #F00508",
"o#	c #B91E20",
"p#	c #BE2022",
"q#	c #BE1F22",
"r#	c #B91719",
"s#	c #7B6262",
"t#	c #FF0104",
"u#	c #8E2E59",
"v#	c #7986F8",
"w#	c #D40000",
"x#	c #5C6ECB",
"y#	c #6B5BA8",
"z#	c #C50000",
"A#	c #7F8DFF",
"B#	c #94274B",
"C#	c #7B7F7F",
"D#	c #867879",
"E#	c #FF0106",
"F#	c #BC4345",
"G#	c #A35E5F",
"H#	c #B80F12",
"I#	c #D80205",
"J#	c #954849",
"K#	c #945758",
"L#	c #FB0409",
"M#	c #7A4784",
"N#	c #818DFF",
"O#	c #BF050E",
"P#	c #FD030A",
"Q#	c #6568C2",
"R#	c #942649",
"S#	c #8C2B51",
"T#	c #A51529",
"U#	c #DD0002",
"V#	c #B24345",
"W#	c #BF292B",
"X#	c #AE4345",
"Y#	c #BC4143",
"Z#	c #B43335",
"`#	c #A3383A",
" $	c #FF0002",
".$	c #6B5AA7",
"+$	c #8A93FF",
"@$	c #6256A0",
"#$	c #6764BA",
"$$	c #8793FF",
"%$	c #BB0000",
"&$	c #BF0003",
"*$	c #DD0306",
"=$	c #C30407",
"-$	c #B34B4D",
";$	c #8A4244",
">$	c #E80004",
",$	c #BA4445",
"'$	c #FE0008",
")$	c #5F71D0",
"!$	c #8991FF",
"~$	c #9C0913",
"{$	c #FF0609",
"]$	c #4E182F",
"^$	c #BB0208",
"/$	c #838FFF",
"($	c #7987FA",
"_$	c #D60000",
":$	c #AE1127",
"<$	c #818BAD",
"[$	c #9B5E5F",
"}$	c #DC0306",
"|$	c #BF2022",
"1$	c #A35859",
"2$	c #EF0408",
"3$	c #9E5F60",
"4$	c #B6C5C7",
"5$	c #A30611",
"6$	c #7685F5",
"7$	c #747AA8",
"8$	c #BD4C49",
"9$	c #A30204",
"0$	c #833564",
"a$	c #626ECD",
"b$	c #9C1F3D",
"c$	c #7379E3",
"d$	c #BE2325",
"e$	c #792B2D",
"f$	c #6F1F21",
"g$	c #866061",
"h$	c #DA0004",
"i$	c #839695",
"j$	c #C90105",
"k$	c #8E7777",
"l$	c #B71C1E",
"m$	c #BB3335",
"n$	c #D8D8CD",
"o$	c #6370C9",
"p$	c #CC0108",
"q$	c #B80000",
"r$	c #8D99FF",
"s$	c #6F6FAB",
"t$	c #AA3A3C",
"u$	c #FA020A",
"v$	c #F60000",
"w$	c #696FCC",
"x$	c #685CA9",
"y$	c #FA040B",
"z$	c #873666",
"A$	c #8F92FF",
"B$	c #7776A2",
"C$	c #9D9E9D",
"D$	c #FA0001",
"E$	c #D00508",
"F$	c #C30F12",
"G$	c #7C6C6D",
"H$	c #EC0003",
"I$	c #FB0004",
"J$	c #859191",
"K$	c #963132",
"L$	c #E40001",
"M$	c #D1D1C1",
"N$	c #706FC0",
"O$	c #7482F2",
"P$	c #E40000",
"Q$	c #A6162E",
"R$	c #767CCD",
"S$	c #A44546",
"T$	c #FF0407",
"U$	c #AF0A16",
"V$	c #7C4581",
"W$	c #764B8C",
"X$	c #8C8DFF",
"Y$	c #7C7BEF",
"Z$	c #B9C1BB",
"`$	c #B04749",
" %	c #B24F51",
".%	c #BF3234",
"+%	c #9D5A5B",
"@%	c #A77272",
"#%	c #7473C3",
"$%	c #8F8FFF",
"%%	c #6B66BD",
"&%	c #872034",
"*%	c #914041",
"=%	c #FF0506",
"-%	c #74386E",
";%	c #8E2F58",
">%	c #6960B1",
",%	c #6372BC",
"'%	c #DA0201",
")%	c #969696",
"!%	c #BC4748",
"~%	c #BC6F71",
"{%	c #9D6566",
"]%	c #C40B0F",
"^%	c #BE0E11",
"/%	c #AF1E1C",
"(%	c #767DD4",
"_%	c #6E549C",
":%	c #FF0109",
"<%	c #9F4C4C",
"[%	c #F00001",
"}%	c #6D7A88",
"|%	c #9E1B35",
"1%	c #EC0000",
"2%	c #6E77DC",
"3%	c #704C8E",
"4%	c #BC191B",
"5%	c #AE4446",
"6%	c #BF494B",
"7%	c #BB7072",
"8%	c #BE3436",
"9%	c #B55354",
"0%	c #FE060A",
"a%	c #707EEA",
"b%	c #833C70",
"c%	c #8F6161",
"d%	c #806463",
"e%	c #B93335",
"f%	c #7271C2",
"g%	c #8A95FF",
"h%	c #B20207",
"i%	c #8C95FF",
"j%	c #A50A16",
"k%	c #FB0408",
"l%	c #AC6D6E",
"m%	c #A34F51",
"n%	c #C13235",
"o%	c #C14446",
"p%	c #BA484A",
"q%	c #A79791",
"r%	c #764783",
"s%	c #96274A",
"t%	c #F80408",
"u%	c #863D3E",
"v%	c #7B7BA5",
"w%	c #7D8CFF",
"x%	c #D10000",
"y%	c #B70812",
"z%	c #8690FF",
"A%	c #646CC8",
"B%	c #A7BAB0",
"C%	c #936565",
"D%	c #C20A0D",
"E%	c #A76666",
"F%	c #BD4B4D",
"G%	c #BD4C4E",
"H%	c #BF4B4D",
"I%	c #9B696A",
"J%	c #8F8F8C",
"K%	c #8484AA",
"L%	c #6D74B9",
"M%	c #8A1933",
"N%	c #9B203F",
"O%	c #9A203E",
"P%	c #6F2D56",
"Q%	c #8E90FF",
"R%	c #8D90FF",
"S%	c #732B51",
"T%	c #9B203E",
"U%	c #8F1733",
"V%	c #848A9E",
"W%	c #AC2426",
"X%	c #BF4E50",
"Y%	c #971B17",
"Z%	c #869693",
"`%	c #878796",
" &	c #7C7BC6",
".&	c #747AE2",
"+&	c #931931",
"@&	c #772E56",
"#&	c #8D91FF",
"$&	c #68447E",
"%&	c #9F1F3B",
"&&	c #7A2F58",
"*&	c #7174DE",
"=&	c #8787AF",
"-&	c #88888C",
";&	c #BE4A4C",
">&	c #BE4C4E",
",&	c #56576B",
"'&	c #8685FF",
")&	c #8B91FF",
"!&	c #8786FF",
"~&	c #7171A5",
"{&	c #797EEB",
"]&	c #8583FB",
"^&	c #8E8EFF",
"/&	c #6A69A9",
"(&	c #7575A3",
"_&	c #6E6EA4",
":&	c #53536C",
"<&	c #6868A8",
"[&	c #7D7CB8",
"}&	c #656582",
"|&	c #6A6A9E",
"1&	c #5E5D87",
"2&	c #7675CA",
"3&	c #8887FE",
"4&	c #6D6CB9",
"5&	c #616091",
"6&	c #6E6DA4",
"7&	c #6E6DA3",
"8&	c #686897",
"9&	c #636388",
"0&	c #6D6DA3",
"a&	c #6C6BA6",
"b&	c #6564B9",
"c&	c #6564BA",
"d&	c #5F5EAF",
"                                                                                                                                ",
"                                                                                                                                ",
"                                                                                                                                ",
"                                                                                                                                ",
"                                                                                                                                ",
"                                                                                                                                ",
"                                                                                                                                ",
"                                                                                                                                ",
"                                                                                                                                ",
"                                  . + @ @ @ @ @ @ @ @ @ @ @ @ @ @ @ @ @ # $     % & * = @ @ @ @ @ @ @ @ - = * - ;               ",
"                                  > , * * * * * * * * * * * * * * * * & '     ) ! & * * * * * * * * * * * * = @ ~               ",
"                                  { & * * * * * = & & & & & & = = * * - ]     ^ / & & & & & = * * * * * * * & !                 ",
"                                  ( , & = * * = _ : < < < < [ , = & @ @ }     | 1 < < < 2 3 & * * * * = & & / 4 5               ",
"        6 7 8 9 9 9 9 9 8 0 a b c d e f / = = & g h i j j k l m / n o p       q r j s j r t u * * = & @ v w x y z 9 A B C       ",
"        D E E E E E E E E E E F G H I   J @ = - K L M N N O P Q R             S T U V W X Y Z = = @ `  .      ..E E E F +.      ",
"      @.#.U $.$.$.$.$.$.$.$.$.$.%.F &.    *./ - =.-.;.>.>.N ,.'.).            !.~.{.].;.-.^./.& @ (.        _.G %.U $.E :.      ",
"      <.[.$.%.E T T T T T F E %.$.%.[.}.    |.1.2.3.4.5.6.;.L 7./ 8.        9.[.%.0.a.;.b.c.- d.e.          f.F g.h.~.U i.      ",
"      j.F $.E k.l.m.m.m.n.o.p.q.%.$.~.r.    s.t.u.v.5.w.x.6.-.y./.z.A.      B.E C.D.E.M F.G.H.I.          J.K.U U L.U U M.      ",
"      N.F $.q.O.              P.F %.U G Q.    R.S.T.6.U.V.W.X.Y./.@ Z.      `. +.+++O @+#+$+%+            &+T U G *+F E G       ",
"      =+F $.q.-+                ;+U $.E         >+,+M '+)+@+3.!+~+& {+]+  ^+/+(+_+:+N <+[+}+              |+E E 1+2+G $.3+4+    ",
"      5+E {.F                   6+F $.E 7+      8+M @+9+0+a+v.b+Z = - c+  d+e+f+g+h+;.(+i+              j+#.%.[.k+  C.$.F l+    ",
"      m+U U [.                  n+F $.E o+      p+q+(+r+s+<+t+u+v+* & & w+x+y+z+A+X ;.v.B+              C+q.U D+E+  #.F+T G+    ",
"    H+I+U E J+                  K+F $.E L+      M+N+T.O+P+f+f+Q+R+* = S+T+v.(+U+V+t+].G W+              X+U Y+Z+    `+U F  @    ",
"    .@3+$.E +@                  @@E %.F #@    $@[.U 3.%@&@t+<+*@=@* & -@;@a+X >@,@t+F+'@)@            !@T %.[.~@    {@E Y+]@    ",
"    ^@T $.F /@                (@G %.U _@      :@T U <@[@}@v.|@1@2@* 3@4@5@5.s 6@7@8@U 9@              0@E U a@      b@E ~.c@    ",
"    d@T $.C.e@              f@g@U $.E h@      i@Y+E j@k@l@m@a+n@o@= u p@t+<+q@r@P U E s@            t@[.%.T u@      v@F ~.w@    ",
"    x@q.$.U y@z@A@A@A@A@B@C@[.U %.U 3.D@      E@F {.F@G@H@3.M I@J@& K@L@M 3.M@N@O@E T P@            Q@Y+U /+R@      S@T U T@U@  ",
"    V@E $.%.E E E E E E E ~.%.%.U 3.W@        6+Y+E X@Y@Z@'@M `@G./. #-.6..#+#@#-.U T ##            $#E E %#        &#T $.G *#  ",
"    =#U $.$.$.$.$.$.$.$.$.%.U F -#;#          >#E E ,#'#)#L y+!#~#{#]#T.<+^#/#(#-.U T _#          :#T %.F <#        [#T $.T }#  ",
"  |#K.U $.U F F F F Y+%.$.E 1#2#3#            4#U 5#6#7#8#!#W 9#0#a#b#M X.c#d#e#v.f#G g#          h#E {.#.i#  j#j#  k#[.$.F l#  ",
"  m#/+F+U n#o#p#q#p#r#F U E $#              s##.U t#u#d#v#w#N -.x#y#X.M z#A#=@B#T.].T@C#        D#3.U $.%.E##.#.#.#.G %.$.T F#  ",
"  G#[.$.E H#          I#E %.T J#            K#[.L#X M#Z N#O#P#-.Q#R#<+f+S#d#2@T#|@W U#          V#T $.$.{.{.{.{.{.{.{.$.$.F W#  ",
"  X#q.$.T Y#          Z#F $.F n+            `#G 4. $.$~++$;@[. $@$`@M -.#$/.$$%$M y+&$          *$E $.$.$.$.$.$.$.$.$.$.$.E =$  ",
"  F#T $.T -$          ;$T %.U >$            ,$'$;.-.)$- !$~$E {$]$t+M ^$/$& ($_$W a+:$<$      [$3+%.%.F F F F F F F [.U $.E }$  ",
"  |$F $.T 1$            2$E %.[.3$        4$5$@+N ,.6$/ 7$8$[.U 9$E.t+0$u - a$-.;.<+b$c$      d$F %.C.e$  f$f$f$f$  g$h$U U '@i$",
"  j$U F+#.k$            l$E $.F m$      n$o$p$M @+q$r$s$  t$F $.{.u$v$w$3@~+x$ $y$t+z$A$B$  C$D$U ~.E$                F$E F+#.G$",
"  H$U U I$J$            K$F $.U L$    M$N$O$P$5.|@Q$R$    S$T F+U T$U$-@& Z V$v.y$3.W$X$Y$Z$`$T $.T  %                .%F $.C.+%",
"  #.F+~.I#                [.U %.G @%  #%$%%%9#;.(+&%      *%T $.%.=%-%u = u ;%f+;.X.>%~+@ ,%'%E U  $)%                !%T $./+~%",
"{%[.$.E ]%                ^%E F+F /%(%@ ~+_%m@a.:%<%        T {.U [%}%& & =@|%<+W 1%2%3@X$3%X.U E 4%                  5%T $.C.6%",
"7%/+$.F 8%                9%T U 0%s a%& v+b%E#;.E#c%      d%#.U q.e%  f%& g%h%@+N w#($& i%j%a+k%[.l%                  m%T $.q.n%",
"o%#.C.#.p%                q%-.#.f+ $r%Z R+s%X t+X.          t%[.[.u%  v%@ w%x%T.t+y%z%- A%-.<+<+P$B%                  C%3.C.[.D%",
"E%F%G%H%I%            J%K%L%M%N%O%b$P%Q%R%S%b$T%U%V%        W%X%Y%Z%`% &@ .&+&T%b$@&#&1.$&%&O%b$&&*&=&-&                ;&G%>&!@",
"                    ,&'&@ , #&=@=@)&Q%= = Q%=@=@=@@ !&~&        {&]&@ - = - =@=@=@R%= = ^&)&=@=@R%& - - /&                      ",
"                    (&@ = * * * * * * * * * * * * = @ _&      :&# & = * * * * * * * * * * * * * * * = - <&                      ",
"                    [&- * * * * * * * * * * * * * & @ }&      |&@ * * * * * * * * * * * * * * * * * = / 1&                      ",
"                    2&/ @ @ @ @ @ @ @ @ @ @ @ @ @ @ 3&        4&/ @ @ @ @ @ @ @ @ @ @ @ @ @ @ @ @ @ @ -                         ",
"                    5&6&7&7&7&7&7&7&7&7&7&7&7&7&7&6&8&        9&6&7&7&7&0&0&0&0&0&a&  b&b&b&b&b&b&b&c&d&                        ",
"                                                                                                                                ",
"                                                                                                                                ",
"                                                                                                                                ",
"                                                                                                                                ",
"                                                                                                                                ",
"                                                                                                                                ",
"                                                                                                                                ",
"                                                                                                                                ",
"                                                                                                                                ",
"                                                                                                                                ",
"                                                                                                                                ",
"                                                                                                                                ",
"                                                                                                                                ",
"                                                                                                                                ",
"                                                                                                                                ",
"                                                                                                                                ",
"                                                                                                                                "};
