/* XPM */
static const char * RMAExpress_xpm[] = {
"32 32 10 1",
" 	c None",
".	c #181818",
"+	c #FFFFFF",
"@	c #E0F4FF",
"#	c #B8E0FF",
"$	c #F00000",
"%	c #FF0000",
"&	c #00FFFF",
"*	c #E0FFFF",
"=	c #000000",
".......+++++++++++++...........@",
".#####.++++++++++++..#########..",
".#####...+++++++++..###########.",
".#######..++++++++.############.",
".########.+++++++..############.",
".$%#######.$+++$..######%#####..",
".$$%######%$%+%$%######$%%###..+",
".$%$%#####%$%.%%%######$%%#...++",
"+$%%$%####$$%#%$%#####$%$%..++++",
"+$%+%$%###$$%#%$%#####$%$%%+++++",
"+$%++%$###$#$#$#$#####$%$%%+++++",
"+$%++$%.##$#$#$#$#####$%+%%+++++",
"+$%+$%%.##$#$#$#$###.$%+++%%++++",
"+$%%%%++.%$#$#$#$%#..$%+++%%++++",
"+$$%%+++.$%#$#$#$%..+$%+++%%++++",
"+$$%++++.$%#$#$#$%.++$$$$$%%++++",
"+$%$%%++.$%#$#$#$%.++%%%%%$%++++",
"+$%$%%%.#$%#$#$#$%#..%%%+%$%++++",
"+$%+$%%##$%#%$%#%$###%%+++$%++&+",
"+$%++%%##$%#%$%#%$##%%%+++$%%+++",
"+$%++$%#$%##%$%##$%#%%..+++$%+*+",
"+$%+.%%#$%###$###$%#%%#..++$%+++",
"+$%+.%%#$%###$###$%#%%##..+$%+++",
"++++.####################.++++++",
"+++..##########..########.++++++",
"+...##########....########.+++++",
"..###########..++..#######..====",
".###########..++++..###########=",
".###########.++++++..##########.",
".###########.+++++++.=#########.",
".###########.++++++++.#########.",
".............++++++++=.........."};
